<?xml version="1.0" encoding="UTF-8"?>
<svg viewBox="0 0 525 281" xmlns="http://www.w3.org/2000/svg" xmlns:xlink="http://www.w3.org/1999/xlink">
 <defs>
  <filter id="h" color-interpolation-filters="sRGB">
   <feGaussianBlur stdDeviation="5.899463"/>
  </filter>
  <linearGradient id="m" x1=".60494" x2=".51403" y1=".15709" y2=".63371">
   <stop stop-color="#cccccf" offset="0"/>
   <stop stop-color="#fff" offset="1"/>
  </linearGradient>
  <linearGradient id="l" x1=".41685" x2=".68682" y1=".45778" y2=".59832">
   <stop stop-color="#ff0" offset="0"/>
   <stop stop-color="#fd3301" offset="1"/>
  </linearGradient>
  <linearGradient id="i" x1=".051955" x2=".19281" y1=".34492" y2=".82889">
   <stop stop-color="#666" offset="0"/>
   <stop stop-color="#666" stop-opacity="0" offset="1"/>
  </linearGradient>
  <linearGradient id="a">
   <stop stop-color="#666" offset="0"/>
   <stop stop-color="#2d2d2d" offset="1"/>
  </linearGradient>
  <radialGradient id="j" x1="1" cx="-246.48" cy="924.06" r="67.369" gradientTransform="matrix(-.99604 .17221 -.15465 -.93607 .5294 1852.8)" gradientUnits="userSpaceOnUse" xlink:href="#a"/>
  <radialGradient id="k" x1="1" cx="-246.48" cy="924.06" r="67.369" gradientTransform="matrix(-.94022 .16256 -.14599 -.8836 6.3322 1802)" gradientUnits="userSpaceOnUse" xlink:href="#a"/>
 </defs>
 <g transform="rotate(11.419 235.95 135.47)">
  <g stroke-width="0">
   <path d="m107.67 93.64s16.461-3.614 25.416-1.3468c8.8485 2.2404 12.507 11.191 21.419 13.111 5.9316 1.2776 10.686-1.2096 11.846-4.5304 1.7726-5.0743-0.38507-9.3092-8.4808-12.725-7.299-3.0798-14.385 2.9745-22.229 0.9015-3.0384-0.80301-9.613-10.089-9.613-10.089s6.4657 8.18 9.4257 8.6047c8.0336 1.1528 14.258-3.152 22.462-2.4988 13.099 1.0431 15.773 9.6093 23.16 16.108 3.7477 3.2972 7.7639 2.8564 11.56 5.2075 18.148 6.5626 12.494 17.532 27.148 16.819 3.883-0.54967 8.5594-2.9874 9.6556-6.7127 1.7562-5.9677-2.5328-10.959-8.3801-13.143-6.5622-2.4509-15.695 2.9245-23.089 0.17488-8.7008-3.2355-10.742-13.644-17.96-19.405-2.7188-2.17-9.029-0.90474-11.61 0.10753 2.2754-1.2344 7.7232-3.8576 11.757-3.0736 8.6905 1.689 10.608 16.904 19.431 17.76 3.3905 0.3288 8.3585-0.54436 10.604-4.3056 4.3785-25.289-33.414-1.3445-37.945-30.353 6.6846 27.943 35.443-1.1856 50.364 28.886 2.5304 3.0457 6.2875 10.61 14.02 12.58 15.18 3.8673 12.998 18.804 25.766 19.168 4.9897 0.14232 9.8018-2.1391 11.713-9.3454 1.1174-4.2127-2.7928-10.285-10.443-11.681-6.9499-1.268-16.831 3.6136-22.247-0.005821-6.7375-4.5024-5.5802-12.99-11.894-18.052-3.4066-2.731-12.77-3.3166-12.77-3.3166s9.6414-0.91499 13.627 1.245c11.49 4.6992 8.7416 21.886 25.058 15.728 3.6606-2.9358 1.9466-10.483-1.1369-13.941-4.8185-5.4038-14.281-2.9923-21.47-4.3328-8.2398-1.5366-20.852-11.484-20.852-11.484s12.733 8.7573 22.608 9.3496c7.4358 0.44598 16.433-3.0008 22.305 1.4714 5.3314 4.0601 9.5488 14.235 14.188 19.019 9.6966 9.9989 52.152 3.6158 49.936 1.7365-15.168 21.628-55.115 48.059-54.185 55.177 0 0-5.7698-7.2477-11.12-4.9627-5.9176 2.5267-11.553 8.5081-18.094 9.346-7.2048 0.92233-13.707-6.1429-20.538-9.2705-9.0718-4.1545-24.282-2.9176-24.282-2.9176s15.621-2.2676 23.649 0.34082c7.0033 2.2754 14.386 8.7047 21.059 6.5194 4.2707-1.3974 9.1125-6.8094 7.1358-10.948-11.854-12.741-16.951 2.7069-29.268 1.1753-4.5053-0.094147-12.706-5.387-12.706-5.387s8.6016 3.9234 12.841 3.2761c7.8581-1.2003 13.056-9.6674 18.551-9.2714 9.7323 0.70136 10.014 6.7476 16.16 9.7027 7.0068 4.1428 12.202-0.70569 13.88-4.5351 1.0024-3.6901-0.34708-7.5752-4.9044-9.9903-9.5456-5.9649-11.256 3.6706-26.107 0.33758-24.815-6.8876-28.292 8.9945-51.083 3.2794-7.861-1.971-17.545-23.183-33.617-8.0648 12.36-14.186 18.756-1.4852 34.705 1.643 2.9383 0.57628 11.615-1.13 12.528-6.1296 0.8342-4.5696-0.19366-6.9771-4.8134-10.1-12.249-7.9359-21.962 5.6428-37.157 0.14724-9.1828-3.3211-12.08-13.714-21.4-16.584-8.2266-2.5329-24.583-0.42025-24.583-0.42025v-1.37e-4zm59.632-8.7995c0.10617-0.15824 0.48959-0.37007 1.0617-0.5975-0.63881 0.34769-1.0617 0.5975-1.0617 0.5975z" fill="#2d2d2d" filter="url(#h)" opacity=".624" stroke="#fff"/>
   <g stroke="#821717" stroke-linecap="round" stroke-linejoin="round">
    <path d="m308.5 119.43c1.0457 0 2.0792 0.057343 3.1003 0.15959v7.5007h-7.7507v-7.3078c1.5201-0.23042 3.0719-0.35242 4.6504-0.35242zm-4.6505 7.6603v8.5114h-7.7507v-8.5114h7.7507zm-7.7507 0h-7.7507v-0.29924c2.3573-1.9453 4.961-3.5596 7.7507-4.7743v5.0736zm-7.7507 0v8.5114h-7.6236c1.9869-3.2441 4.4456-6.1177 7.2663-8.5114h0.35727zm0 8.5114h7.7507v8.5114h-7.7507v-8.5114zm0 8.5114v8.5114h-7.7507v-8.5114h7.7507zm-7.7507 0h-3.7119c0.91135-2.9554 2.1677-5.7388 3.7119-8.2986v8.2986zm0 8.5114v8.5114h-5.038c-0.25537-1.8048-0.38754-3.6501-0.38754-5.5324 0-1.0026 0.041351-1.997 0.11505-2.979h5.3105zm0 8.5114h7.7507v8.5114h-7.7507v-8.5114zm0 8.5114v5.7452c-1.0907-1.808-2.0333-3.7318-2.8157-5.7452h2.8157zm7.7507 0h7.7507v8.5114h-7.7507v-8.5114zm0 8.5114v6.2572c-2.1981-1.814-4.1817-3.9165-5.9039-6.2572h5.9039zm7.7507 0h7.7507v8.5114h-7.7507v-8.5114zm0 8.5114v2.5202c-1.6251-0.70763-3.1879-1.5555-4.6746-2.5202h4.6746zm7.7507 0h7.7507v4.9472c-1.0211 0.1023-2.0546 0.15961-3.1003 0.15961-1.5786 0-3.1303-0.12201-4.6504-0.35242v-4.7544zm7.7507 0v-8.5114h7.7507v8.5114h-7.7507zm7.7507 0h6.2248c-1.9538 1.2676-4.0386 2.3284-6.2248 3.1452v-3.1452zm0-8.5114v-8.5114h7.7507v8.5114h-7.7507zm7.7507 0h7.454c-2.1178 2.8784-4.6331 5.397-7.454 7.4608v-7.4608zm0-8.5114v-8.5114h7.7508v8.5114h-7.7508zm7.7508 0h4.3658c-1.1327 2.9147-2.6039 5.6398-4.3658 8.1058v-8.1058zm0-8.5114v-8.5114h6.8606c0.07373 0.98204 0.11505 1.9764 0.11505 2.979 0 1.8823-0.13214 3.7276-0.38751 5.5324h-6.5881zm0-8.5114h-7.7508v-8.5114h7.7508v8.5114zm0-8.5114v-8.5114h1.423c1.6032 2.6175 2.9026 5.4747 3.839 8.5114h-5.262zm0-8.5114h-7.7508v-8.5114h1.9074c2.1813 1.8511 4.1464 3.9885 5.8433 6.3636v2.1478zm-7.7508-8.5114h-7.7507v-5.6987c2.7666 1.0337 5.3677 2.4525 7.7507 4.1959v1.5028zm-7.7507 0v8.5114h-7.7507v-8.5114h7.7507zm-7.7507 8.5114v8.5114h-7.7507v-8.5114h7.7507zm-7.7507 8.5114v8.5114h-7.7507v-8.5114h7.7507zm-7.7507 8.5114v8.5114h-7.7507v-8.5114h7.7507zm0 8.5114h7.7507v8.5114h-7.7507v-8.5114zm7.7507 8.5114h7.7507v8.5114h-7.7507v-8.5114zm7.7507 0v-8.5114h7.7507v8.5114h-7.7507zm7.7507-8.5114v-8.5114h7.7507v8.5114h-7.7507zm0-8.5114h-7.7507v-8.5114h7.7507v8.5114zm0-8.5114v-8.5114h7.7507v8.5114h-7.7507zm-7.7507 8.5114v8.5114h-7.7507v-8.5114h7.7507z"/>
    <path d="m315.86 119.01c1.0457 0 2.0792 0.057327 3.1003 0.15958v7.5007h-7.7507v-7.3078c1.5201-0.23041 3.0718-0.3524 4.6504-0.3524zm-4.6504 7.6602v8.5114h-7.7507v-8.5114h7.7507zm-7.7507 0h-7.7507v-0.29922c2.3573-1.9453 4.961-3.5596 7.7507-4.7744v5.0736zm-7.7507 0v8.5114h-7.6236c1.9869-3.244 4.4456-6.1177 7.2663-8.5114h0.35727zm0 8.5114h7.7507v8.5114h-7.7507v-8.5114zm0 8.5114v8.5114h-7.7507v-8.5114h7.7507zm-7.7507 0h-3.7118c0.91132-2.9554 2.1676-5.7388 3.7118-8.2986v8.2986zm0 8.5114v8.5114h-5.038c-0.25537-1.8048-0.38757-3.6501-0.38757-5.5324 0-1.0026 0.041351-1.997 0.11511-2.979h5.3104zm0 8.5114h7.7507v8.5114h-7.7507v-8.5114zm0 8.5114v5.7452c-1.0907-1.808-2.0333-3.7318-2.8157-5.7452h2.8157zm7.7507 0h7.7507v8.5114h-7.7507v-8.5114zm0 8.5114v6.2572c-2.1982-1.814-4.1817-3.9165-5.9039-6.2572h5.9039zm7.7507 0h7.7507v8.5114h-7.7507v-8.5114zm0 8.5114v2.5202c-1.6251-0.70761-3.1879-1.5555-4.6747-2.5202h4.6747zm7.7507 0h7.7507v4.9472c-1.0211 0.10228-2.0546 0.15959-3.1003 0.15959-1.5786 0-3.1303-0.12201-4.6504-0.35242v-4.7544zm7.7507 0v-8.5114h7.7507v8.5114h-7.7507zm7.7507 0h6.2248c-1.9538 1.2676-4.0386 2.3284-6.2248 3.1452v-3.1452zm0-8.5114v-8.5114h7.7507v8.5114h-7.7507zm7.7507 0h7.454c-2.1178 2.8785-4.6331 5.3971-7.454 7.4608v-7.4608zm0-8.5114v-8.5114h7.7507v8.5114h-7.7507zm7.7507 0h4.3658c-1.1327 2.9147-2.604 5.6398-4.3658 8.1058v-8.1058zm0-8.5114v-8.5114h6.8606c0.0737 0.98202 0.11505 1.9764 0.11505 2.979 0 1.8823-0.13217 3.7276-0.38754 5.5324h-6.5881zm0-8.5114h-7.7507v-8.5114h7.7507v8.5114zm0-8.5114v-8.5114h1.423c1.6032 2.6175 2.9026 5.4747 3.839 8.5114h-5.262zm0-8.5114h-7.7507v-8.5114h1.9074c2.1813 1.8511 4.1464 3.9885 5.8433 6.3636v2.1478zm-7.7507-8.5114h-7.7507v-5.6986c2.7666 1.0337 5.3677 2.4525 7.7507 4.1959v1.5028zm-7.7507 0v8.5114h-7.7507v-8.5114h7.7507zm-7.7507 8.5114v8.5114h-7.7507v-8.5114h7.7507zm-7.7507 8.5114v8.5114h-7.7507v-8.5114h7.7507zm-7.7507 8.5114v8.5114h-7.7507v-8.5114h7.7507zm0 8.5114h7.7507v8.5114h-7.7507v-8.5114zm7.7507 8.5114h7.7507v8.5114h-7.7507v-8.5114zm7.7507 0v-8.5114h7.7507v8.5114h-7.7507zm7.7507-8.5114v-8.5114h7.7507v8.5114h-7.7507zm0-8.5114h-7.7507v-8.5114h7.7507v8.5114zm0-8.5114v-8.5114h7.7507v8.5114h-7.7507zm-7.7507 8.5114v8.5114h-7.7507v-8.5114h7.7507z" fill="url(#m)"/>
   </g>
  </g>
  <path d="m113.88 91.413s15.273-3.8494 23.58-1.4345c8.2097 2.3864 11.604 11.92 19.872 13.965 5.5034 1.3607 9.9149-1.2885 10.991-4.8256 1.6445-5.4048-0.35722-9.9157-7.8685-13.554-6.772-3.2805-13.347 3.1682-20.624 0.96024-2.819-0.85538-8.919-10.746-8.919-10.746s5.9989 8.7128 8.7451 9.1652c7.4536 1.228 13.229-3.3573 20.84-2.6615 12.153 1.111 14.634 10.235 21.488 17.158 3.4772 3.5119 7.2034 3.0425 10.726 5.5467 16.838 6.99 11.592 18.674 25.188 17.914 3.6026-0.5855 7.9413-3.182 8.9584-7.15 1.6293-6.3565-2.35-11.673-7.7752-13.999-6.0884-2.6106-14.562 3.1151-21.422 0.18632-8.0725-3.4463-9.9661-14.532-16.664-20.669-2.5225-2.3114-8.3772-0.9637-10.772 0.11451 2.1112-1.3148 7.1657-4.1089 10.909-3.2738 8.063 1.7989 9.8419 18.005 18.028 18.917 3.1457 0.3502 7.755-0.5798 9.8383-4.5861 4.0624-26.937-31.002-1.4322-35.205-32.33 6.202 29.763 32.884-1.2629 46.728 30.768 2.3477 3.244 5.8335 11.302 13.007 13.4 14.084 4.1193 12.059 20.029 23.906 20.417 4.6295 0.15158 9.094-2.2785 10.868-9.9542 1.0367-4.4871-2.5912-10.955-9.689-12.442-6.4481-1.3505-15.616 3.849-20.641-0.006325-6.251-4.7956-5.1773-13.836-11.036-19.228-3.1606-2.909-11.848-3.5327-11.848-3.5327s8.9452-0.97462 12.643 1.3262c10.66 5.0053 8.1103 23.312 23.249 16.753 3.3963-3.127 1.8061-11.166-1.0548-14.849-4.4706-5.7557-13.25-3.1872-19.92-4.615-7.6449-1.6367-19.347-12.232-19.347-12.232s11.814 9.3277 20.976 9.9586c6.8988 0.4751 15.246-3.1962 20.695 1.5673 4.9464 4.3247 8.8594 15.163 13.163 20.258 8.9966 10.65 48.386 3.8515 46.331 1.8497-14.073 23.037-51.136 51.189-50.273 58.772 0 0-5.3533-7.72-10.317-5.2865-5.4903 2.6917-10.718 9.0628-16.787 9.9547-6.6846 0.98245-12.717-6.5428-19.055-9.8746-8.4168-4.425-22.528-3.1071-22.528-3.1071s14.494-2.4153 21.942 0.36261c6.4976 2.4234 13.347 9.2721 19.539 6.9449 3.9623-1.4893 8.4546-7.2538 6.6206-11.662-10.999-13.571-15.727 2.8828-27.155 1.2516-4.18-0.10083-11.789-5.7376-11.789-5.7376s7.9806 4.1791 11.914 3.4892c7.2908-1.2785 12.114-10.297 17.212-9.8753 9.0296 0.74706 9.2911 7.1871 14.993 10.334 6.5008 4.4125 11.321-0.7511 12.878-4.8305 0.93008-3.9305-0.32205-8.0685-4.5502-10.641-8.8564-6.3534-10.443 3.9097-24.222 0.35965-23.023-7.3363-26.25 9.5799-47.394 3.493-7.2934-2.0995-16.278-24.693-31.19-8.5901 11.468-15.11 17.402-1.582 32.199 1.75 2.7261 0.61386 10.776-1.2035 11.623-6.5288 0.77393-4.8674-0.17963-7.4316-4.4658-10.758-11.365-8.4528-20.377 6.0105-34.474 0.15688-8.5198-3.5375-11.208-14.607-19.855-17.664-7.6325-2.698-22.808-0.44764-22.808-0.44764v-6.1e-5zm55.326-9.3728c0.098557-0.16848 0.45425-0.39416 0.98505-0.63637-0.59258 0.37032-0.98505 0.63637-0.98505 0.63637z" fill="url(#l)" stroke="#120b0b" stroke-width=".516"/>
  <g stroke-linecap="round" stroke-linejoin="round">
   <g transform="matrix(-.49596 0 0 .53862 200.96 17.692)" stroke-width="0">
    <path d="m-226.76 155.82c-55.038 0-99.649 44.13-99.649 98.548s44.611 98.519 99.649 98.519 99.677-44.102 99.677-98.519c0-54.418-44.639-98.548-99.677-98.548zm0 26.945c39.99 0 72.414 32.064 72.414 71.603s-32.424 71.575-72.414 71.575-72.387-32.035-72.387-71.575c0-39.539 32.397-71.603 72.387-71.603z"/>
    <path d="m-225.39 155.39c-1.6718-0.03241-1.4493 9.1843-1.8988 15.193h0.03389c1.0817 0 2.1499 0.028992 3.2212 0.070679-0.21478-6.0212 0.31566-15.231-1.3563-15.264zm1.3563 15.263c0.10315 2.8886 0.35196 5.0422 1.1529 5.0878 0.8008 0.045609 1.329-2.0538 1.7632-4.9111-0.96599-0.072021-1.9409-0.13869-2.9161-0.17671zm2.9161 0.1767c1.0799 0.080566 2.1536 0.1958 3.2212 0.31799 0.24292-6.0201 1.5296-15.176-0.13564-15.334-1.6648-0.15802-2.1804 9.0588-3.0856 15.016zm3.2212 0.318c-0.11639 2.8848-0.014587 5.0527 0.77988 5.1584 0.79575 0.106 1.4856-1.9849 2.1362-4.8052-0.97055-0.14691-1.9344-0.24097-2.916-0.35327zm2.916 0.3533c1.0702 0.16203 2.1315 0.36211 3.1873 0.56531 0.70047-5.9846 2.6651-15.016 1.0172-15.299-1.6473-0.28272-2.8498 8.8611-4.2045 14.734zm3.1873 0.5653c-0.33606 2.871-0.37794 5.0638 0.40688 5.2292 0.78191 0.16473 1.6161-1.849 2.4753-4.5931-0.95558-0.2204-1.9138-0.44965-2.8821-0.63605zm2.8821 0.636c1.0556 0.24335 2.1142 0.49329 3.1534 0.77728 1.1507-5.9147 3.7941-14.786 2.1701-15.193-1.6246-0.40674-3.5227 8.6636-5.3235 14.416zm3.1534 0.7773c-0.54958 2.8248-0.76767 5.0059 0 5.2291 0.7684 0.22345 1.7471-1.7381 2.8143-4.4165-0.92615-0.28949-1.874-0.55566-2.8143-0.81262zm2.8143 0.8126c1.0302 0.32202 2.0399 0.66321 3.0517 1.0246 1.597-5.8111 4.9114-14.453 3.3229-14.981-1.5878-0.5274-4.1429 8.3555-6.3746 13.956zm3.0517 1.0246c-0.76268 2.7752-1.1215 4.9135-0.37297 5.1939 0.74736 0.27997 1.8894-1.5534 3.1534-4.1339-0.91974-0.36742-1.8442-0.72552-2.7804-1.06zm2.7804 1.06c1.007 0.4023 1.9975 0.83107 2.9838 1.272 2.0314-5.6748 5.9881-14.087 4.4419-14.734-1.545-0.64606-4.773 8.0462-7.4257 13.462zm2.9838 1.272c-0.96564 2.6974-1.5365 4.753-0.81377 5.0878 0.72165 0.33435 2.0078-1.3856 3.4586-3.8512-0.87152-0.42804-1.7557-0.83917-2.6448-1.2366zm2.6448 1.2366c0.96152 0.47235 1.943 0.93994 2.8821 1.4487 2.4572-5.5056 7.0533-13.584 5.5608-14.345-1.4936-0.7616-5.3841 7.6979-8.443 12.896zm2.8821 1.4487c-1.1683 2.6178-1.8482 4.6642-1.1529 5.0525 0.69397 0.3875 2.0625-1.2557 3.6959-3.6039-0.8429-0.49713-1.6806-0.98144-2.543-1.4486zm2.543 1.4486c0.93426 0.55095 1.8372 1.1445 2.7465 1.7312 2.8619-5.3066 8.1152-13.082 6.6798-13.956-1.4317-0.87196-5.9809 7.2718-9.4263 12.225zm2.7465 1.7312c-1.3457 2.4952-2.1847 4.4396-1.5258 4.8758 0.65671 0.43483 2.1472-1.0638 3.9333-3.2505-0.79343-0.55348-1.5932-1.0998-2.4074-1.6253zm2.4074 1.6253c0.89267 0.62274 1.7794 1.2508 2.6448 1.908 3.2542-5.0768 9.0979-12.445 7.7309-13.426-1.367-0.98126-6.559 6.8453-10.376 11.518zm2.6448 1.908c-1.5229 2.3758-2.4867 4.2515-1.8649 4.7345 0.61995 0.48149 2.2312-0.89636 4.1706-2.9326-0.75601-0.61871-1.5268-1.2104-2.3057-1.8019zm2.3057 1.8019c0.82832 0.67786 1.6415 1.3751 2.4414 2.0846 3.6257-4.819 10.074-11.741 8.782-12.826-1.2902-1.0828-7.0611 6.371-11.223 10.741zm2.4414 2.0846c-1.6829 2.2367-2.7501 4.0324-2.1701 4.5578 0.57817 0.52374 2.2343-0.71315 4.3062-2.5792-0.69862-0.66608-1.4136-1.3376-2.1362-1.9786zm2.1362 1.9786c0.78546 0.7489 1.5515 1.5169 2.3057 2.2966 3.9737-4.5351 10.976-11.007 9.7654-12.19-1.2075-1.1799-7.5864 5.8539-12.071 9.893zm2.3057 2.2966c-1.8213 2.0785-3.009 3.7479-2.4752 4.3106 0.53372 0.56256 2.2515-0.50214 4.4419-2.1906-0.64738-0.71948-1.2936-1.4242-1.9666-2.1199zm1.9666 2.1199c0.72923 0.81042 1.4744 1.5983 2.1701 2.4379 4.3071-4.2231 11.764-10.177 10.647-11.448-1.1172-1.2707-8.0368 5.325-12.817 9.0097zm2.1701 2.4379c-1.974 1.9356-3.3038 3.4972-2.8143 4.0985 0.48671 0.59778 2.2832-0.33319 4.5775-1.8373-0.58076-0.75407-1.1561-1.5286-1.7632-2.2612zm1.7632 2.2612c0.66776 0.86708 1.3007 1.7554 1.9327 2.6499 4.6043-3.8919 12.585-9.3118 11.562-10.67-1.02-1.3545-8.4476 4.7114-13.495 8.0204zm1.9327 2.6499c-2.0735 1.7527-3.4548 3.1872-3.0178 3.8159 0.43555 0.62654 2.2772-0.1449 4.6453-1.4486-0.52538-0.8037-1.074-1.5837-1.6276-2.3672zm1.6275 2.3672c0.59415 0.90895 1.1722 1.822 1.7293 2.7559 4.8809-3.5372 13.33-8.3514 12.41-9.787-0.91818-1.4338-8.8546 4.1216-14.139 7.031zm1.7293 2.7559c-2.1782 1.5786-3.6407 2.8776-3.2551 3.5332 0.3809 0.64763 2.2726-0.003967 4.6792-1.0953-0.45465-0.82806-0.94093-1.6279-1.4241-2.4379zm1.4241 2.4379c0.52862 0.96284 1.0368 1.9462 1.5258 2.9326 5.1266-3.1644 13.967-7.3615 13.156-8.8684-0.81198-1.5088-9.1931 3.4488-14.682 5.9358zm1.5258 2.9326c-2.2573 1.3933-3.824 2.5741-3.4924 3.2506 0.32623 0.66559 2.2448 0.17615 4.6792-0.70666-0.38571-0.85292-0.77188-1.7072-1.1868-2.5439zm1.1868 2.5439c0.45697 1.0106 0.87344 2.0416 1.2885 3.0739 5.3246-2.7834 14.604-6.3333 13.902-7.9144-0.69893-1.5745-9.5324 2.7887-15.19 4.8405zm1.2885 3.0739c-2.2592 1.181-3.9002 2.251-3.6281 2.9325 0.27251 0.68268 2.1814 0.33168 4.6453-0.35332-0.31476-0.87085-0.67288-1.7227-1.0172-2.5792zm1.0172 2.5792c0.37906 1.0487 0.74985 2.1114 1.085 3.1799 5.5142-2.3782 15.093-5.2564 14.512-6.8898-0.57928-1.6283-9.8033 2.0991-15.598 3.7099zm1.0851 3.1799c-2.3205 1.0008-4.0158 1.9185-3.7976 2.6146 0.21623 0.68988 2.0966 0.47846 4.5436 0-0.24103-0.87323-0.47582-1.7535-0.74594-2.6146zm0.7459 2.6146c0.29587 1.0719 0.56273 2.1612 0.8138 3.2506 5.6583-1.9683 15.581-4.1097 15.123-5.7945-0.45697-1.6788-10.047 1.3924-15.937 2.5439zm0.8138 3.2506c-2.3221 0.80774-3.9933 1.5986-3.8316 2.2966 0.16075 0.69348 1.9892 0.66846 4.408 0.38861-0.17493-0.90289-0.37088-1.7934-0.57643-2.6852zm0.5764 2.6852c0.21475 1.1085 0.44269 2.1969 0.61035 3.3212 5.7815-1.5431 15.928-2.9788 15.597-4.6992-0.33011-1.719-10.26 0.68988-16.208 1.3779zm0.6104 3.3212c-2.3447 0.62579-4.0406 1.241-3.9333 1.9433 0.10611 0.69397 1.8912 0.83118 4.2723 0.74194-0.10226-0.89594-0.20688-1.7985-0.33905-2.6852zm0.339 2.6852c0.12711 1.1128 0.22507 2.2303 0.30516 3.3566 5.8559-1.1212 16.239-1.7429 16.038-3.4979-0.19954-1.7486-10.374-0.082336-16.343 0.1413h-3.1e-5zm0.3052 3.3566c-2.3058 0.44147-3.9519 0.96704-3.8994 1.6606 0.052124 0.68646 1.7269 0.92914 4.035 1.0247-0.033508-0.89996-0.072189-1.7932-0.13564-2.6852zm0.1356 2.6852c0.036499 0.98505 0.06781 1.9741 0.06781 2.9679 0 0.14185 7.48e-4 0.28229 0 0.42395 5.9003-0.69452 16.444-0.51874 16.377-2.2966-0.066605-1.7722-10.499-0.8493-16.445-1.0953h1.5e-5zm0.0678 3.3918c-2.2645 0.26654-3.899 0.65985-3.8994 1.3426-3.05e-4 0.67639 1.6013 1.074 3.8316 1.3426 0.034592-0.89087 0.063004-1.787 0.067795-2.6852h3.1e-5zm-0.0678 2.6852c-0.044296 1.139-0.11113 2.2656-0.20344 3.3919 5.9106-0.26849 16.58 0.69525 16.649-1.0954 0.068802-1.7841-10.559-1.5875-16.445-2.2966zm-0.2034 3.3919c-2.2098 0.10046-3.8142 0.35663-3.8655 1.0246-0.050903 0.66229 1.4556 1.1595 3.5942 1.59 0.10042-0.8682 0.19942-1.7382 0.27127-2.6146zm-0.2713 2.6146c-0.13101 1.1332-0.26207 2.2736-0.44078 3.3918 5.8937 0.15964 16.612 1.9669 16.818 0.17673 0.20561-1.7859-10.59-2.4035-16.377-3.5685zm-0.4408 3.3918c-2.1584-0.058472-3.6973 0.089752-3.7976 0.74204-0.099197 0.64416 1.2886 1.2574 3.3229 1.8373 0.16615-0.85522 0.33652-1.7145 0.4747-2.5793zm-0.4747 2.5793c-0.21899 1.1272-0.47932 2.2467-0.74599 3.3565 5.8255 0.56576 16.575 3.2718 16.92 1.484 0.34312-1.7776-10.524-3.23-16.174-4.8404zm-0.746 3.3565c-2.0523-0.19925-3.5165-0.16544-3.662 0.45938-0.1442 0.61929 1.1149 1.302 3.0178 2.0139 0.22519-0.81857 0.44513-1.6445 0.64424-2.4733zm-0.6442 2.4733c-0.30988 1.1266-0.62511 2.2504-0.98331 3.3566 5.738 0.97369 16.402 4.5248 16.886 2.7558 0.48151-1.762-10.437-4.0677-15.903-6.1124zm-0.9833 3.3566c-1.9679-0.33398-3.3716-0.388-3.5603 0.21198-0.1878 0.59695 0.9538 1.3538 2.7465 2.1906 0.28786-0.79907 0.5513-1.592 0.81378-2.4026zm-0.8138 2.4026c-0.39652 1.1006-0.84488 2.1728-1.2885 3.2505 5.6095 1.359 16.196 5.8068 16.818 4.0633 0.61751-1.7305-10.267-4.8575-15.53-7.3137zm-1.2885 3.2505c-1.8542-0.44913-3.1633-0.56815-3.3908 0-0.22554 0.56345 0.77502 1.3647 2.4074 2.2967 0.34093-0.75879 0.66594-1.5255 0.98329-2.2967zm-0.9833 2.2967c-0.48024 1.0687-0.96606 2.1365-1.492 3.1799 5.462 1.7408 15.823 7.0738 16.581 5.3705 0.75507-1.6965-10.094-5.6991-15.089-8.5504zm-1.492 3.1799c-1.7559-0.55963-3.0246-0.75009-3.289-0.21198-0.26114 0.53137 0.64729 1.3846 2.1362 2.4026 0.39317-0.72281 0.78189-1.4546 1.1528-2.1906zm-1.1528 2.1906c-0.56636 1.0412-1.1519 2.0611-1.7632 3.0739 5.2747 2.0899 15.348 8.3349 16.242 6.6778 0.88896-1.648-9.771-6.533-14.478-9.7517zm-1.7632 3.0739c-1.6298-0.64575-2.7901-0.88992-3.0856-0.38867-0.28975 0.49152 0.48355 1.3674 1.7971 2.4379 0.43591-0.67499 0.87283-1.3606 1.2885-2.0493zm-1.2885 2.0493c-0.64981 1.0062-1.3407 1.9932-2.0344 2.9679 5.0502 2.3982 14.839 9.5542 15.869 7.9497 1.0235-1.5947-9.4726-7.3628-13.834-10.918zm-2.0344 2.9679c-1.4809-0.70325-2.5625-1.024-2.8821-0.56531-0.31752 0.45572 0.32532 1.3866 1.4919 2.5086 0.48224-0.63629 0.92703-1.2925 1.3902-1.9433zm-1.3902 1.9433c-0.73364 0.96793-1.4613 1.9287-2.2379 2.8619 4.8324 2.7318 14.172 10.681 15.326 9.151 1.151-1.5254-9.0752-8.1532-13.088-12.013zm-2.2379 2.8619c-1.3847-0.78281-2.3992-1.1677-2.7465-0.74194-0.34026 0.41702 0.20735 1.3211 1.2207 2.4732 0.50674-0.57458 1.0357-1.1423 1.5258-1.7313zm-1.5258 1.7313c-0.8058 0.9137-1.6286 1.809-2.4753 2.6852 4.5693 2.9959 13.4 11.842 14.682 10.388 1.2751-1.4474-8.5759-8.9449-12.207-13.073zm-2.4753 2.6852c-1.2454-0.81659-2.2128-1.1957-2.577-0.81262-0.36197 0.3808 0.10516 1.2569 0.98334 2.4379 0.54492-0.53281 1.0643-1.0773 1.5936-1.6252zm-1.5936 1.6252c-0.89165 0.87189-1.8146 1.7138-2.7465 2.544 4.3018 3.2609 12.605 12.883 14.004 11.518 1.3908-1.3564-8.0106-9.6961-11.257-14.062zm-2.7465 2.5439c-1.1313-0.85754-1.9922-1.2987-2.3735-0.95401-0.37387 0.33804-0.006989 1.2005 0.71207 2.3673 0.5557-0.46875 1.119-0.93002 1.6615-1.4133zm-1.6615 1.4133c-0.9613 0.81088-1.9503 1.6011-2.95 2.3672 4.0103 3.4734 11.642 13.917 13.156 12.649 1.5065-1.2618-7.4019-10.468-10.206-15.016zm-2.95 2.3672c-1.0041-0.86969-1.8131-1.3276-2.204-1.0246-0.39218 0.30396-0.13182 1.1799 0.4747 2.3672 0.58957-0.42706 1.1521-0.90027 1.7293-1.3426zm-1.7293 1.3426c-1.018 0.73746-2.0659 1.4294-3.1195 2.1199 3.7235 3.7177 10.628 14.829 12.241 13.674 1.6047-1.1496-6.7086-11.071-9.1211-15.794zm-3.1195 2.1199c-0.91214-0.91068-1.6288-1.3986-2.0344-1.1306-0.40201 0.26556-0.24214 1.1237 0.23735 2.2966 0.61056-0.37726 1.1976-0.77307 1.7971-1.166zm-1.7971 1.166c-1.0815 0.66827-2.1739 1.2899-3.289 1.9079 3.4197 3.9218 9.4836 15.7 11.19 14.663 1.6999-1.0332-5.9212-11.729-7.9005-16.571zm-3.289 1.9079c-0.81351-0.93298-1.4839-1.3971-1.8988-1.1659-0.40944 0.22812-0.32782 1.0025 0.033905 2.1553 0.62448-0.32507 1.2502-0.64862 1.8649-0.98935zm-1.8649 0.9893c-1.1325 0.58948-2.2951 1.159-3.4586 1.6959 3.1054 4.098 8.3482 16.456 10.138 15.546 1.7854-0.90808-5.1342-12.316-6.6798-17.242zm-3.4586 1.6959c-0.71664-0.94565-1.3424-1.431-1.7632-1.2366-0.41611 0.19223-0.39081 0.95081-0.13564 2.0846 0.63849-0.27484 1.2691-0.55737 1.8988-0.84799zm-1.8988 0.848c-1.1936 0.51379-2.4053 0.99121-3.6281 1.4486 2.783 4.2287 7.118 17.102 8.9855 16.323 1.859-0.77518-4.2363-12.791-5.3574-17.772zm-3.6281 1.4486c-0.61784-0.93878-1.1389-1.4644-1.5598-1.3073-0.41946 0.15665-0.49274 0.90872-0.33908 2.0139 0.63902-0.22086 1.2673-0.47037 1.8988-0.70664zm-1.8988 0.7066c-1.2181 0.42105-2.4519 0.80194-3.6959 1.166 2.4563 4.3723 5.8018 17.633 7.7309 16.995 1.9228-0.63666-3.3399-13.162-4.035-18.161zm-3.6959 1.166c-0.53311-0.94898-1.0343-1.5007-1.458-1.378-0.4207 0.12192-0.56789 0.87082-0.50861 1.9433 0.65904-0.17487 1.3144-0.37445 1.9666-0.56531zm-1.9666 0.5653c-1.2613 0.33462-2.5466 0.60852-3.8316 0.88324 2.127 4.4613 4.4921 18.09 6.4763 17.595 1.9752-0.49231-2.3693-13.495-2.6448-18.479zm-3.8316 0.8832c-0.44589-0.93524-0.86884-1.5012-1.2885-1.4132-0.41765 0.087463-0.61427 0.77557-0.64423 1.802 0.64652-0.12201 1.2918-0.25159 1.9327-0.38879zm-1.9327 0.3888c-1.2908 0.24329-2.5875 0.45428-3.8994 0.63586 1.7881 4.5766 3.0991 18.435 5.12 18.09 2.0182-0.34433-1.3644-13.802-1.2207-18.726zm-3.8994 0.6359c-0.36984-0.94669-0.76636-1.5041-1.1868-1.4486-0.41771 0.05542-0.63629 0.69739-0.74596 1.696 0.65122-0.074158 1.2863-0.15796 1.9327-0.24744zm-1.9327 0.2474c-1.3121 0.14948-2.6367 0.26678-3.9672 0.35318 1.4435 4.6673 1.7179 18.636 3.7638 18.444 2.044-0.19223-0.33086-13.932 0.20346-18.797v-6.1e-5zm-3.9672 0.3532c-0.29468-0.95282-0.63223-1.5428-1.0511-1.5193-0.42055 0.023621-0.69634 0.67386-0.88159 1.6606 0.64619-0.027039 1.2906-0.10004 1.9327-0.14133zm-1.9327 0.1413c-1.1382 0.047974-2.2747 0.069946-3.4246 0.069946h-0.54254c1.0797 4.776 0.28711 18.658 2.3396 18.62 2.0529-0.038971 0.72452-13.881 1.6276-18.691v6.1e-4zm-3.9672 0.0699c-0.22172-0.98071-0.52789-1.6171-0.9494-1.6252-0.41901-0.009979-0.72424 0.59354-0.98331 1.5547 0.6445 0.019958 1.2845 0.065979 1.9327 0.070007v5.49e-4zm-1.9327-0.0699c-1.3402-0.039001-2.6782-0.10773-4.0011-0.21204 0.71539 4.8395-1.1347 18.644 0.9155 18.761 2.052 0.11743 1.815-13.835 3.0856-18.549zm-4.0011-0.212c-0.14667-0.99185-0.39474-1.6208-0.81378-1.6606-0.41815-0.04007-0.78697 0.54111-1.119 1.484 0.63855 0.065308 1.2898 0.12613 1.9327 0.17654zm-1.9327-0.1765c-1.3174-0.13501-2.6355-0.2623-3.9333-0.45932 0.30977 4.9452-2.5333 18.457-0.50864 18.726 2.0363 0.27097 2.8182-13.655 4.4419-18.267zm-3.9333-0.4593c-0.06543-1.0452-0.25272-1.7289-0.67816-1.8019-0.42203-0.072906-0.84418 0.49994-1.2546 1.4486 0.64954 0.11499 1.2779 0.25384 1.9327 0.35333zm-1.9327-0.3533c-1.3035-0.23053-2.5846-0.48547-3.8654-0.77734-0.071915 4.9618-3.9299 18.199-1.9328 18.62 2.0018 0.42157 3.8373-13.31 5.7982-17.843zm-3.8654-0.7773c0.015106-1.0526-0.12256-1.7674-0.54253-1.8726-0.42702-0.107-0.92772 0.44943-1.4241 1.4133 0.64949 0.1651 1.3109 0.30994 1.9667 0.45929zm-1.9667-0.4593c-1.2619-0.32077-2.5266-0.64569-3.7637-1.0246-0.50942 5.0211-5.268 17.736-3.323 18.302 1.9524 0.56802 4.7935-12.824 7.0867-17.277v-3.1e-5zm-3.7637-1.0246c0.11264-1.1101 0.051987-1.8375-0.373-1.9787-0.42212-0.14017-0.95029 0.36475-1.5258 1.3073 0.63663 0.21256 1.2552 0.47421 1.8988 0.67136zm-1.8988-0.6714c-1.247-0.41635-2.477-0.86832-3.6959-1.3426-0.89059 4.9692-6.6094 17.309-4.7132 18.019 1.8993 0.71146 5.7842-12.378 8.4091-16.677zm-3.6959-1.3426c0.19702-1.0994 0.20981-1.8411-0.20346-2.014-0.4277-0.17883-1.0142 0.336-1.6954 1.3073 0.62125 0.25989 1.2697 0.46185 1.8988 0.70666zm-1.8988-0.7067c-1.1842-0.49542-2.3381-1.041-3.4925-1.59-1.3382 4.9564-7.8921 16.645-6.0694 17.489 1.8226 0.84439 6.6104-11.69 9.5619-15.899zm-3.4925-1.59c0.30881-1.1438 0.34509-1.9447-0.06781-2.1552-0.41571-0.21201-1.0372 0.30719-1.7971 1.2366 0.61453 0.31186 1.2413 0.62213 1.8649 0.91864zm-1.8649-0.9186c-1.1475-0.58228-2.2761-1.2029-3.3908-1.8372-1.7554 4.877-9.103 15.914-7.3579 16.889 1.7505 0.97748 7.4832-11.057 10.749-15.052zm-3.3908-1.8372c0.41516-1.1534 0.50537-1.9801 0.10165-2.226-0.41058-0.25006-1.1026 0.2431-1.9666 1.166 0.61368 0.37128 1.2405 0.70465 1.8649 1.06h6.1e-5zm-1.8649-1.06c-1.0818-0.65448-2.14-1.3112-3.1873-2.0139-2.2115 4.7918-10.195 15.089-8.5447 16.182 1.6592 1.0986 8.1549-10.347 11.732-14.168zm-3.1873-2.0139c0.54874-1.1889 0.73801-2.0455 0.33908-2.3319-0.39905-0.28644-1.1407 0.1665-2.1022 1.0599 0.58984 0.41934 1.1615 0.86826 1.7632 1.272zm-1.7632-1.272c-1.0236-0.72751-2.031-1.4881-3.0178-2.2612-2.5943 4.6255-11.29 14.229-9.7314 15.44 1.5626 1.2137 8.8754-9.5793 12.749-13.179zm-3.0178-2.2612c0.65198-1.1625 0.92239-2.0485 0.54251-2.3672-0.38538-0.32342-1.2076 0.12921-2.2718 0.98932 0.56619 0.46912 1.15 0.92407 1.7293 1.3779zm-1.7293-1.3779c-0.95599-0.79211-1.8969-1.6035-2.8143-2.4379-3.0257 4.4568-12.232 13.209-10.783 14.522 1.4568 1.3197 9.4381-8.7226 13.597-12.084zm-2.8143-2.4379c0.79465-1.1705 1.181-2.0791 0.81378-2.438-0.37256-0.36404-1.2875 0.082397-2.4752 0.91867 0.54083 0.5202 1.1061 1.0141 1.6615 1.5193zm-1.6615-1.5193c-0.88519-0.8515-1.7321-1.7239-2.577-2.6146-3.4357 4.2446-13.134 12.162-11.8 13.568 1.34 1.4125 9.9367-7.8274 14.377-10.953zm-2.577-2.6146c0.93939-1.1606 1.4348-2.0754 1.085-2.4733-0.35413-0.40277-1.3392-0.014709-2.6448 0.77734 0.51273 0.57251 1.0307 1.1382 1.5597 1.6959zm-1.5597-1.6959c-0.81769-0.91309-1.6324-1.8415-2.4074-2.7913-3.8346 3.9962-13.859 11.055-12.648 12.543 1.2189 1.4972 10.355-6.9 15.055-9.7516zm-2.4074-2.7913c1.0956-1.1418 1.7199-2.0354 1.3902-2.4733-0.33145-0.44009-1.3933-0.097473-2.8143 0.63602 0.47351 0.61594 0.93304 1.2356 1.4241 1.8373zm-1.4241-1.8373c-0.73425-0.9552-1.4792-1.9089-2.1701-2.8972-4.2155 3.7105-14.545 9.8893-13.461 11.448 1.0931 1.5724 10.692-6.0006 15.631-8.5504zm-2.1701-2.8972c1.2617-1.1105 2.0016-1.995 1.6954-2.4733-0.30667-0.47885-1.4698-0.21091-3.0178 0.45938 0.43933 0.67078 0.86337 1.3572 1.3224 2.0139zm-1.3224-2.0139c-0.65079-0.99362-1.2584-2.0151-1.8649-3.0386-4.5214 3.3853-15.165 8.689-14.207 10.317 0.96143 1.6347 10.909-5.0425 16.072-7.2784zm-1.8649-3.0386c1.3797-1.033 2.2058-1.8951 1.9327-2.4026-0.27832-0.51718-1.4746-0.27713-3.1534 0.31802 0.39062 0.70776 0.80908 1.39 1.2207 2.0846zm-1.2207-2.0846c-0.57129-1.035-1.1361-2.0823-1.6615-3.1446-4.8653 3.0333-15.604 7.4431-14.784 9.1157 0.82611 1.6854 11.079-4.0689 16.445-5.9711zm-1.6615-3.1446c1.5713-0.97961 2.5158-1.8175 2.2718-2.3672-0.2449-0.5517-1.5267-0.3938-3.3229 0.10596 0.34482 0.75653 0.68326 1.5176 1.0511 2.2613zm-1.0511-2.2612c-0.48355-1.0608-0.95303-2.1304-1.3902-3.2153-5.1337 2.6523-16.011 6.1984-15.326 7.9144 0.68954 1.7275 11.181-3.1588 16.716-4.6991zm-1.3902-3.2153c1.7112-0.88409 2.7834-1.681 2.577-2.2613-0.2085-0.58603-1.5727-0.50003-3.4925-0.10596 0.29147 0.79691 0.59924 1.5824 0.91553 2.3672v-3.1e-5zm-0.9155-2.3673c-0.39902-1.091-0.76743-2.1732-1.1189-3.2859-5.3762 2.2461-16.28 4.9668-15.733 6.7132 0.55069 1.7566 11.17-2.2607 16.852-3.4273zm-1.1189-3.2859c1.8591-0.77664 3.0483-1.5093 2.8821-2.1198-0.16681-0.61285-1.5835-0.61917-3.5942-0.35333 0.23135 0.82587 0.45462 1.6583 0.71204 2.4732zm-0.712-2.4732c-0.30771-1.0984-0.62097-2.2044-0.88162-3.3212-5.5698 1.8225-16.448 3.6713-16.038 5.4412 0.4126 1.7802 11.134-1.355 16.92-2.1199zm-0.8816-3.3212c1.9798-0.64783 3.3091-1.3091 3.1873-1.9432-0.12274-0.63922-1.6227-0.72943-3.7298-0.60071 0.1691 0.85162 0.34613 1.7023 0.54251 2.544zm-0.5425-2.5439c-0.22064-1.1109-0.43707-2.2296-0.61032-3.3565-5.7258 1.3834-16.548 2.3861-16.276 4.1692 0.27365 1.7905 11.022-0.45438 16.886-0.81268zm-0.6103-3.3565c2.0898-0.50485 3.5332-1.0772 3.4585-1.7313-0.075073-0.65881-1.622-0.86008-3.7976-0.88327 0.1044 0.87137 0.20648 1.752 0.33911 2.6145zm-0.3391-2.6145c-0.13599-1.136-0.25204-2.2771-0.33905-3.4272-5.8417 0.9331-16.547 1.1809-16.411 2.9678 0.13583 1.7937 10.848 0.39636 16.75 0.45935zm-0.339-3.4272c2.1835-0.34883 3.755-0.77931 3.7298-1.4487-0.025299-0.67584-1.6611-0.98144-3.8994-1.166 0.037201 0.87769 0.10376 1.7445 0.16956 2.6146zm-0.1696-2.6146c-0.047699-1.1242-0.06778-2.2561-0.06778-3.3918 0-0.011902-3.1e-5 -0.023621 0-0.035278-5.9223 0.47198-16.478-0.083252-16.479 1.6959-8.85e-4 1.7855 10.638 1.2441 16.547 1.7313v-1e-4zm-0.0678-3.4272c2.2726-0.18115 3.9409-0.48376 3.9672-1.166 0.02652-0.68549-1.6298-1.1294-3.8994-1.484-0.029602 0.88031-0.067413 1.7626-0.06781 2.6499zm0.0678-2.6499c0.038208-1.1379 0.083313-2.2665 0.16956-3.3919-5.9622 0.006042-16.276-1.3026-16.411 0.45935-0.13586 1.7706 10.366 2.0147 16.242 2.9326zm0.1696-3.3919c2.3444-0.002014 4.0912-0.19299 4.1706-0.8833 0.080383-0.69855-1.6056-1.267-3.9333-1.8019-0.098907 0.89075-0.16849 1.786-0.23734 2.6852zm0.2373-2.6852c0.12323-1.1102 0.27182-2.2252 0.44083-3.3212-5.9649-0.46417-16.009-2.5107-16.276-0.77734-0.26749 1.7385 10.013 2.7605 15.835 4.0985zm0.4408-3.3212c2.4094 0.18744 4.2058 0.13025 4.3402-0.56537 0.13501-0.69946-1.5365-1.402-3.8654-2.1199-0.17093 0.89801-0.33466 1.7769-0.4747 2.6852zm0.4747-2.6852c0.21054-1.1063 0.45566-2.1963 0.71204-3.2859-5.9236-0.92755-15.677-3.6774-16.072-1.9786-0.39679 1.7044 9.6396 3.5012 15.36 5.2645zm0.712-3.2859c2.4391 0.3819 4.2865 0.48084 4.4758-0.21204 0.19012-0.69574-1.4841-1.5344-3.7976-2.4379-0.23871 0.87604-0.46927 1.7622-0.67816 2.65zm0.6782-2.65c0.29398-1.0789 0.61114-2.155 0.9494-3.2152-5.8438-1.385-15.246-4.8357-15.767-3.1799-0.52261 1.6613 9.2322 4.2138 14.818 6.3951zm0.9494-3.2152c2.4479 0.5802 4.3331 0.82629 4.5775 0.14136 0.24631-0.69025-1.3992-1.6956-3.6959-2.7912-0.31305 0.87262-0.59882 1.7636-0.88159 2.6499zm0.8816-2.6499c0.37305-1.0398 0.80563-2.0545 1.2207-3.0739-5.7264-1.832-14.785-5.916-15.428-4.3106-0.64313 1.6067 8.7847 4.7974 14.207 7.3844zm1.2207-3.0739c2.431 0.77776 4.3128 1.1655 4.6114 0.49463 0.30389-0.68276-1.2484-1.8125-3.5264-3.1092-0.38644 0.85913-0.72885 1.7397-1.085 2.6146zm1.085-2.6146c0.44833-0.99676 0.90207-1.9932 1.3902-2.9679-5.5762-2.2788-14.162-6.9465-14.919-5.4058-0.75714 1.5408 8.2969 5.3954 13.529 8.3737zm1.3902-2.9679c2.4286 0.99243 4.3242 1.5767 4.6792 0.91864 0.35974-0.66693-1.1349-1.9367-3.3568-3.4272-0.452 0.82709-0.89954 1.6642-1.3224 2.5086zm1.3224-2.5086c0.52612-0.96271 1.0969-1.8882 1.6615-2.8266-5.3875-2.6956-13.574-7.9783-14.445-6.5011-0.86691 1.4706 7.7781 5.9702 12.783 9.3276zm1.6615-2.8266c2.3576 1.1796 4.24 1.9036 4.6453 1.272 0.41354-0.64435-1.016-2.0342-3.1534-3.7099-0.52283 0.8017-0.99783 1.6168-1.4919 2.4379zm1.4919-2.4379c0.58841-0.90228 1.2071-1.7731 1.831-2.6499-5.1671-3.1155-12.829-8.9912-13.8-7.5964-0.97189 1.395 7.2238 6.5259 11.969 10.246zm1.831-2.6499c2.3284 1.4039 4.15 2.2368 4.6114 1.6252 0.46426-0.61517-0.85702-2.145-2.8821-3.9925-0.59326 0.77234-1.1643 1.5732-1.7293 2.3672zm1.7293-2.3672c0.65454-0.85205 1.3125-1.7192 2.0006-2.5439-4.9135-3.507-12.053-9.8259-13.122-8.5151-1.0721 1.3141 6.6664 6.9944 11.122 11.059zm2.0005-2.5439c2.2515 1.6069 4.0311 2.631 4.5436 2.0492 0.5126-0.58186-0.74777-2.1942-2.6448-4.2045-0.64072 0.71423-1.2841 1.4184-1.8988 2.1553zm1.8988-2.1553c0.72818-0.81177 1.4771-1.5856 2.2379-2.3673-4.6328-3.8668-11.278-10.696-12.444-9.469-1.1659 1.2265 6.0672 7.4499 10.206 11.836zm2.2379-2.3673c2.1233 1.7722 3.8526 2.9442 4.408 2.4026 0.55841-0.5446-0.58456-2.288-2.3396-4.4518-0.70187 0.67076-1.3915 1.3538-2.0684 2.0492zm2.0684-2.0492c0.77957-0.74506 1.5641-1.5122 2.3735-2.226-4.3214-4.2144-10.381-11.446-11.63-10.317-1.2526 1.1324 5.4579 7.8592 9.2567 12.543zm2.3735-2.226c2.0136 1.9637 3.6368 3.2952 4.2384 2.7913 0.60355-0.50551-0.42429-2.3451-2.0344-4.6638-0.74567 0.61139-1.4814 1.2354-2.204 1.8726zm2.204-1.8726c0.83884-0.68774 1.71-1.3243 2.577-1.9786-3.9886-4.5274-9.485-12.197-10.816-11.165-1.3296 1.0306 4.7994 8.1895 8.2395 13.144zm2.577-1.9786c1.8584 2.1095 3.3967 3.5311 4.035 3.0739 0.6402-0.45862-0.26627-2.3368-1.6954-4.7698-0.78982 0.5528-1.5712 1.1161-2.3396 1.6959zm2.3396-1.6959c0.88882-0.62201 1.7976-1.2151 2.7126-1.802-3.6314-4.817-8.4969-12.87-9.901-11.942-1.4042 0.92775 4.1347 8.5456 7.1884 13.744zm2.7126-1.802c1.6999 2.2549 3.1243 3.8011 3.7976 3.3919 0.67804-0.41205-0.06601-2.4219-1.3224-4.9818-0.84573 0.49982-1.65 1.0606-2.4752 1.5899zm2.4752-1.5899c0.93048-0.54999 1.86-1.0766 2.8144-1.59-3.2494-5.0826-7.4532-13.359-8.9177-12.543-1.4657 0.8166 3.4471 8.7204 6.1033 14.133zm2.8144-1.59c1.541 2.4103 2.8854 4.1057 3.5942 3.7452 0.70996-0.36107 0.081818-2.4269-0.98331-5.0878-0.8736 0.42999-1.7557 0.88263-2.6109 1.3426zm2.6109-1.3427c0.95767-0.47131 1.9371-0.90834 2.916-1.3426-2.8514-5.3146-6.4146-13.881-7.9344-13.179-1.5211 0.70282 2.7779 8.9251 5.0183 14.522zm2.916-1.3426c1.3593 2.5336 2.5862 4.3351 3.3229 4.0279 0.73456-0.30638 0.28165-2.4294-0.57645-5.1585-0.92212 0.36897-1.8418 0.72926-2.7465 1.1306zm2.7465-1.1306c0.99948-0.39989 1.9988-0.80504 3.0178-1.1659-2.438-5.5147-5.3495-14.294-6.9171-13.709-1.5709 0.58667 2.0918 9.1258 3.8994 14.875zm3.0178-1.1659c1.1649 2.635 2.2248 4.5265 2.9839 4.2752 0.75864-0.25116 0.44998-2.3923-0.20346-5.1938-0.93683 0.29382-1.8588 0.59222-2.7804 0.91864zm2.7804-0.9186c1.0176-0.31915 2.0509-0.63881 3.0856-0.91864-2.0115-5.6826-4.2248-14.669-5.8321-14.204-1.6081 0.46593 1.3777 9.2536 2.7465 15.122zm3.0856-0.9186c0.96175 2.7169 1.9023 4.7161 2.6787 4.5225 0.77792-0.19397 0.64531-2.3736 0.20343-5.2291-0.96391 0.22302-1.9319 0.44965-2.8821 0.7066zm2.8821-0.7066c1.0459-0.24213 2.0922-0.47003 3.1534-0.67133-1.5716-5.8187-3.1112-14.935-4.747-14.592-1.6365 0.34308 0.67218 9.3086 1.5937 15.264zm3.1534-0.6713c0.7545 2.7936 1.5146 4.8341 2.3057 4.6992 0.79324-0.13538 0.83652-2.3334 0.61035-5.2292-0.98785 0.15002-1.9404 0.34491-2.9161 0.53003zm2.9161-0.53c1.0523-0.15973 2.122-0.26953 3.1873-0.38861-1.1249-5.9202-1.9367-15.129-3.5942-14.91-1.6551 0.21861-0.062286 9.2914 0.40692 15.299zm3.1873-0.3886c0.5399 2.8412 1.1677 4.9155 1.9666 4.8405 0.79549-0.074707 0.98569-2.2147 0.98332-5.0878-0.98421 0.074112-1.976 0.13844-2.95 0.24733zm2.95-0.2473c1.0671-0.080627 2.1429-0.1731 3.2212-0.21204-0.67184-5.9878-0.80571-15.216-2.4752-15.122-1.6728 0.09375-0.75092 9.3098-0.74596 15.334zm3.2212-0.212c0.32234 2.8729 0.75758 4.9965 1.5598 4.9818 0.80218-0.014648 1.1745-2.1694 1.3902-5.0524-0.99058 3.66e-4 -1.9681 0.03508-2.95 0.070679v-7.6e-5z"/>
   </g>
   <g stroke="#817e7e">
    <path d="m313.14 122.6c16.151 0 29.244 14.595 29.244 32.591s-13.093 32.576-29.244 32.576-29.244-14.58-29.244-32.576 13.093-32.591 29.244-32.591zm0 2.418c-14.953 0-27.078 13.513-27.078 30.173s12.126 30.158 27.078 30.158c14.953 0 27.078-13.497 27.078-30.158 0-16.66-12.126-30.173-27.078-30.173z" fill="url(#k)" stroke-width="1.273"/>
    <path d="m313.14 120.67c17.11 0 30.981 15.462 30.981 34.526s-13.87 34.51-30.981 34.51c-17.11 0-30.981-15.446-30.981-34.51s13.87-34.526 30.981-34.526zm0 2.5616c-15.84 0-28.686 14.315-28.686 31.964s12.846 31.948 28.686 31.948 28.686-14.299 28.686-31.948-12.845-31.964-28.686-31.964z" fill="url(#j)" stroke-width="1.349"/>
   </g>
   <path d="m313.63 99.363c27.941 0 50.592 25.25 50.592 56.381 0 31.132-22.65 56.356-50.592 56.356-27.941 0-50.592-25.224-50.592-56.356 0-31.131 22.651-56.381 50.592-56.381zm0 4.1837c-25.867 0-46.844 23.376-46.844 52.197 0 28.823 20.977 52.172 46.844 52.172s46.845-23.348 46.845-52.172c0-28.821-20.978-52.197-46.845-52.197z" stroke="#999" stroke-width="2.452"/>
   <path d="m311.65 120.68c17.105 0 30.971 15.457 30.971 34.516 0 19.058-13.866 34.499-30.971 34.499s-30.971-15.441-30.971-34.499 13.866-34.516 30.971-34.516zm0 2.5611c-15.836 0-28.677 14.31-28.677 31.954s12.841 31.938 28.677 31.938 28.677-14.294 28.677-31.938-12.841-31.954-28.677-31.954z" fill="#364e59" stroke="#e3dcdc" stroke-width="1.348"/>
   <g transform="matrix(-.42368 0 0 .46012 219.24 90.287)" stroke-width="0">
    <path d="m-223.48 41.402c-55.038 0-99.649 44.13-99.649 98.548s44.611 98.519 99.649 98.519 99.677-44.102 99.677-98.519c0-54.418-44.639-98.548-99.677-98.548zm0 26.945c39.99 0 72.414 32.064 72.414 71.603s-32.424 71.575-72.414 71.575-72.387-32.035-72.387-71.575c0-39.539 32.397-71.603 72.387-71.603z" fill="#2d2d2d"/>
    <path d="m-222.11 40.969c-1.6718-0.03241-1.4493 9.1843-1.8988 15.193h0.033905c1.0817 0 2.1499 0.028992 3.2212 0.070679-0.2148-6.0212 0.31566-15.231-1.3563-15.264zm1.3563 15.263c0.10313 2.8886 0.35196 5.0422 1.1529 5.0878 0.80081 0.045593 1.329-2.0538 1.7632-4.9111-0.96597-0.072021-1.9409-0.13867-2.9161-0.1767zm2.9161 0.1767c1.0799 0.080566 2.1536 0.1958 3.2212 0.31799 0.24292-6.0201 1.5296-15.176-0.13562-15.334-1.6648-0.15802-2.1804 9.0588-3.0856 15.016zm3.2212 0.318c-0.11638 2.8848-0.014587 5.0527 0.77989 5.1584 0.79573 0.10602 1.4856-1.9849 2.1362-4.8052-0.97055-0.14691-1.9344-0.24097-2.9161-0.35327zm2.9161 0.3533c1.0702 0.16205 2.1315 0.36212 3.1873 0.56531 0.70048-5.9846 2.6652-15.016 1.0172-15.299-1.6473-0.28272-2.8498 8.8611-4.2045 14.734zm3.1873 0.5653c-0.33604 2.871-0.37794 5.0638 0.40689 5.2292 0.78191 0.16473 1.6161-1.849 2.4752-4.5931-0.95558-0.2204-1.9138-0.44965-2.8821-0.63605zm2.8821 0.636c1.0556 0.24335 2.1142 0.49329 3.1534 0.77728 1.1507-5.9147 3.7941-14.786 2.1701-15.193-1.6246-0.40674-3.5227 8.6636-5.3235 14.416zm3.1534 0.7773c-0.54956 2.8248-0.76767 5.0059 0 5.2291 0.7684 0.22345 1.7471-1.7381 2.8144-4.4165-0.92616-0.28949-1.874-0.55566-2.8144-0.81262zm2.8143 0.8126c1.0302 0.32202 2.0399 0.66321 3.0517 1.0246 1.597-5.8112 4.9114-14.453 3.3229-14.981-1.5878-0.5274-4.143 8.3555-6.3746 13.956zm3.0517 1.0246c-0.76268 2.7752-1.1215 4.9135-0.37299 5.1938 0.74738 0.27997 1.8894-1.5534 3.1534-4.1338-0.91974-0.36743-1.8442-0.72552-2.7804-1.06zm2.7804 1.06c1.007 0.40228 1.9976 0.83106 2.9839 1.272 2.0314-5.6747 5.988-14.087 4.4419-14.734-1.545-0.64606-4.773 8.0462-7.4257 13.462zm2.9839 1.272c-0.96564 2.6974-1.5365 4.753-0.81377 5.0878 0.72165 0.33435 2.0078-1.3856 3.4585-3.8512-0.87151-0.42804-1.7557-0.83917-2.6448-1.2366zm2.6448 1.2366c0.96153 0.47235 1.943 0.93994 2.8822 1.4487 2.4572-5.5056 7.0533-13.584 5.5608-14.345-1.4936-0.7616-5.3841 7.6979-8.443 12.896zm2.8822 1.4487c-1.1683 2.6178-1.8482 4.6642-1.1529 5.0525 0.69397 0.38751 2.0625-1.2557 3.6959-3.6039-0.8429-0.49713-1.6806-0.98144-2.543-1.4486zm2.543 1.4486c0.93425 0.55096 1.8372 1.1445 2.7465 1.7313 2.8619-5.3066 8.1152-13.082 6.6798-13.956-1.4317-0.87195-5.9809 7.2718-9.4263 12.225zm2.7465 1.7313c-1.3457 2.4952-2.1847 4.4396-1.5258 4.8758 0.65669 0.43481 2.1472-1.0638 3.9333-3.2506-0.79343-0.55347-1.5932-1.0998-2.4074-1.6252zm2.4074 1.6252c0.89265 0.62274 1.7794 1.2508 2.6448 1.908 3.2542-5.0768 9.0979-12.445 7.7309-13.426-1.367-0.98126-6.559 6.8453-10.376 11.518zm2.6448 1.908c-1.5229 2.3758-2.4867 4.2515-1.8649 4.7345 0.61993 0.48151 2.2312-0.89636 4.1706-2.9326-0.75601-0.61871-1.5268-1.2104-2.3057-1.8019zm2.3057 1.8019c0.82831 0.67786 1.6415 1.3751 2.4414 2.0846 3.6257-4.819 10.074-11.742 8.782-12.826-1.2902-1.0828-7.0611 6.371-11.223 10.741zm2.4413 2.0846c-1.6829 2.2367-2.7501 4.0324-2.1701 4.5578 0.57819 0.52374 2.2343-0.71314 4.3063-2.5792-0.69862-0.66608-1.4136-1.3376-2.1362-1.9786zm2.1362 1.9786c0.78546 0.7489 1.5515 1.5169 2.3057 2.2966 3.9737-4.5351 10.976-11.007 9.7654-12.19-1.2075-1.1799-7.5864 5.8539-12.071 9.893zm2.3057 2.2966c-1.8213 2.0786-3.009 3.7479-2.4752 4.3106 0.53371 0.56256 2.2515-0.50214 4.4419-2.1906-0.64738-0.71948-1.2936-1.4242-1.9666-2.1199zm1.9666 2.1199c0.72923 0.81042 1.4744 1.5983 2.1701 2.4379 4.307-4.2232 11.764-10.177 10.647-11.448-1.1172-1.2707-8.0368 5.325-12.817 9.0097zm2.1701 2.4379c-1.974 1.9356-3.3038 3.4972-2.8143 4.0985 0.48671 0.59778 2.2832-0.33319 4.5775-1.8373-0.58076-0.75409-1.1561-1.5286-1.7632-2.2612zm1.7632 2.2612c0.66776 0.86706 1.3007 1.7554 1.9327 2.6499 4.6043-3.8919 12.585-9.3118 11.562-10.67-1.02-1.3545-8.4477 4.7114-13.495 8.0204zm1.9327 2.6499c-2.0735 1.7527-3.4548 3.1872-3.0178 3.8159 0.43555 0.62653 2.2772-0.1449 4.6453-1.4486-0.52538-0.80371-1.074-1.5837-1.6276-2.3672zm1.6276 2.3672c0.59415 0.90894 1.1722 1.822 1.7293 2.7559 4.8809-3.5372 13.329-8.3514 12.41-9.787-0.91818-1.4338-8.8546 4.1216-14.139 7.0311zm1.7293 2.7559c-2.1782 1.5786-3.6407 2.8776-3.2551 3.5332 0.3809 0.64766 2.2726-0.003952 4.6792-1.0953-0.45465-0.82806-0.94092-1.6279-1.4241-2.4379zm1.4241 2.4379c0.52864 0.96283 1.0368 1.9462 1.5258 2.9326 5.1266-3.1644 13.967-7.3615 13.156-8.8684-0.81198-1.5088-9.1931 3.4488-14.682 5.9358zm1.5258 2.9326c-2.2573 1.3933-3.824 2.5741-3.4925 3.2506 0.32625 0.66559 2.2448 0.17615 4.6792-0.70668-0.38571-0.8529-0.7719-1.7072-1.1868-2.5439zm1.1868 2.5439c0.45697 1.0106 0.87344 2.0416 1.2885 3.0739 5.3246-2.7834 14.604-6.3332 13.902-7.9144-0.69893-1.5745-9.5324 2.7887-15.19 4.8405zm1.2885 3.0739c-2.2592 1.181-3.9002 2.251-3.6281 2.9326 0.27249 0.68266 2.1814 0.33166 4.6453-0.35333-0.31477-0.87085-0.67288-1.7227-1.0172-2.5792zm1.0172 2.5792c0.37906 1.0487 0.74983 2.1114 1.085 3.1799 5.5142-2.3782 15.093-5.2564 14.512-6.8898-0.57927-1.6283-9.8033 2.0991-15.598 3.7099zm1.0851 3.1799c-2.3205 1.0008-4.0158 1.9185-3.7976 2.6146 0.21623 0.68988 2.0966 0.47846 4.5436 0-0.24103-0.87323-0.47582-1.7535-0.74594-2.6146zm0.7459 2.6145c0.29585 1.0719 0.56271 2.1612 0.81378 3.2506 5.6584-1.9683 15.581-4.1097 15.123-5.7945-0.45697-1.6788-10.047 1.3924-15.936 2.5439zm0.8138 3.2506c-2.3221 0.80774-3.9933 1.5986-3.8315 2.2966 0.16075 0.69348 1.9891 0.66846 4.408 0.38861-0.17493-0.90289-0.3709-1.7934-0.57645-2.6852zm0.5764 2.6852c0.21475 1.1085 0.44269 2.1969 0.61034 3.3212 5.7815-1.5431 15.928-2.9788 15.597-4.6992-0.33009-1.719-10.26 0.68988-16.208 1.3779zm0.6103 3.3212c-2.3447 0.62579-4.0406 1.241-3.9333 1.9433 0.10609 0.69397 1.8912 0.83118 4.2723 0.74194-0.10228-0.89594-0.20688-1.7985-0.33907-2.6852zm0.3391 2.6852c0.12709 1.1128 0.22507 2.2303 0.30516 3.3566 5.8559-1.1212 16.238-1.7429 16.038-3.4979-0.19955-1.7486-10.374-0.082336-16.343 0.1413h-1.5e-5zm0.3052 3.3566c-2.3058 0.44147-3.9519 0.96704-3.8994 1.6606 0.052109 0.68646 1.7269 0.92912 4.035 1.0246-0.033493-0.89995-0.072189-1.7932-0.13562-2.6852zm0.1356 2.6852c0.036499 0.98505 0.06781 1.9741 0.06781 2.9679 0 0.14185 7.63e-4 0.28229 0 0.42395 5.9003-0.69452 16.444-0.51874 16.377-2.2966-0.066605-1.7722-10.499-0.8493-16.445-1.0953h1.5e-5zm0.0678 3.3919c-2.2644 0.26654-3.899 0.65985-3.8994 1.3426-3.2e-4 0.67639 1.6013 1.074 3.8315 1.3426 0.034607-0.89087 0.063004-1.7871 0.067795-2.6852h3.1e-5zm-0.0678 2.6852c-0.044296 1.139-0.11112 2.2656-0.20343 3.3919 5.9106-0.26851 16.58 0.69525 16.649-1.0953 0.068802-1.7841-10.559-1.5875-16.445-2.2966zm-0.2034 3.3919c-2.2098 0.10046-3.8142 0.35663-3.8655 1.0246-0.050903 0.66228 1.4556 1.1595 3.5942 1.59 0.1004-0.86816 0.19942-1.7382 0.27127-2.6146zm-0.2713 2.6146c-0.13101 1.1332-0.26208 2.2737-0.44078 3.3918 5.8937 0.15961 16.612 1.9669 16.818 0.1767 0.20561-1.7859-10.59-2.4035-16.377-3.5685zm-0.4408 3.3918c-2.1584-0.058472-3.6973 0.089737-3.7976 0.74202-0.099197 0.64415 1.2886 1.2574 3.3229 1.8373 0.16615-0.85522 0.3365-1.7145 0.4747-2.5793zm-0.4747 2.5793c-0.21901 1.1272-0.47932 2.2468-0.74599 3.3565 5.8255 0.56574 16.575 3.2717 16.92 1.484 0.34314-1.7776-10.524-3.23-16.174-4.8404zm-0.746 3.3565c-2.0523-0.19926-3.5165-0.16547-3.662 0.45935-0.1442 0.61932 1.1148 1.3021 3.0178 2.0139 0.22519-0.81854 0.44513-1.6445 0.64424-2.4733zm-0.6442 2.4733c-0.30989 1.1266-0.62512 2.2504-0.98332 3.3566 5.738 0.97368 16.403 4.5248 16.886 2.7558 0.48151-1.7621-10.437-4.0678-15.903-6.1124zm-0.9833 3.3566c-1.9679-0.33398-3.3715-0.388-3.5603 0.21196-0.18782 0.59698 0.95378 1.3538 2.7465 2.1906 0.28786-0.79907 0.5513-1.592 0.81377-2.4026zm-0.8138 2.4026c-0.39653 1.1007-0.84488 2.1728-1.2885 3.2505 5.6095 1.359 16.196 5.8068 16.818 4.0632 0.61751-1.7304-10.268-4.8575-15.53-7.3137zm-1.2885 3.2505c-1.8542-0.44914-3.1633-0.56816-3.3908 0-0.22554 0.56342 0.77501 1.3647 2.4074 2.2966 0.34094-0.75879 0.66594-1.5255 0.98331-2.2966zm-0.9833 2.2966c-0.48024 1.0687-0.96605 2.1366-1.4919 3.1799 5.4619 1.7408 15.823 7.0739 16.581 5.3705 0.75508-1.6965-10.094-5.6991-15.089-8.5504zm-1.4919 3.1799c-1.7559-0.55963-3.0246-0.75005-3.289-0.21198-0.26114 0.53139 0.64729 1.3846 2.1362 2.4026 0.39317-0.72284 0.78189-1.4546 1.1528-2.1906zm-1.1528 2.1906c-0.56636 1.0412-1.1519 2.0611-1.7632 3.0738 5.2747 2.0899 15.348 8.3349 16.242 6.6778 0.88896-1.648-9.771-6.533-14.478-9.7516zm-1.7632 3.0739c-1.6298-0.64575-2.7901-0.88989-3.0856-0.38867-0.28973 0.49152 0.48355 1.3674 1.7971 2.4379 0.43591-0.675 0.87283-1.3606 1.2885-2.0493zm-1.2885 2.0493c-0.64983 1.0062-1.3407 1.9931-2.0344 2.9679 5.0502 2.3982 14.839 9.5541 15.869 7.9497 1.0234-1.5947-9.4726-7.3629-13.834-10.918zm-2.0344 2.9679c-1.4809-0.70325-2.5625-1.024-2.8821-0.56531-0.3175 0.45569 0.32533 1.3866 1.4919 2.5086 0.48225-0.63629 0.92703-1.2925 1.3902-1.9433zm-1.3902 1.9433c-0.73364 0.96796-1.4613 1.9287-2.2379 2.8619 4.8324 2.7318 14.172 10.681 15.326 9.151 1.151-1.5254-9.0752-8.1532-13.088-12.013zm-2.2379 2.8619c-1.3847-0.78279-2.3992-1.1677-2.7465-0.74197-0.34026 0.41708 0.20737 1.3211 1.2207 2.4732 0.50674-0.57458 1.0357-1.1423 1.5258-1.7312zm-1.5258 1.7312c-0.8058 0.91371-1.6286 1.809-2.4753 2.6853 4.5693 2.9959 13.4 11.842 14.682 10.388 1.2751-1.4474-8.5759-8.9449-12.207-13.073zm-2.4753 2.6853c-1.2454-0.81659-2.2128-1.1958-2.577-0.81264-0.36197 0.3808 0.10515 1.2569 0.98332 2.4379 0.54492-0.53278 1.0643-1.0773 1.5936-1.6252zm-1.5936 1.6252c-0.89165 0.87189-1.8146 1.7137-2.7465 2.544 4.3018 3.2609 12.605 12.883 14.004 11.518 1.3908-1.3564-8.0106-9.6962-11.257-14.062zm-2.7465 2.5439c-1.1313-0.85754-1.9922-1.2987-2.3735-0.95398-0.37389 0.33801-0.007004 1.2005 0.71205 2.3672 0.55571-0.46875 1.119-0.92998 1.6615-1.4133zm-1.6615 1.4133c-0.9613 0.81093-1.9503 1.6011-2.95 2.3673 4.0103 3.4734 11.642 13.917 13.156 12.649 1.5065-1.2618-7.4019-10.468-10.206-15.016zm-2.95 2.3673c-1.0041-0.8697-1.8131-1.3276-2.204-1.0246-0.39217 0.30396-0.13182 1.1799 0.4747 2.3672 0.58957-0.42706 1.1521-0.90027 1.7293-1.3426zm-1.7293 1.3426c-1.018 0.73743-2.0659 1.4295-3.1195 2.1199 3.7236 3.7178 10.628 14.829 12.241 13.674 1.6047-1.1496-6.7086-11.071-9.1211-15.794zm-3.1195 2.1199c-0.91212-0.91068-1.6288-1.3986-2.0344-1.1306-0.40201 0.26556-0.24214 1.1237 0.23735 2.2966 0.61058-0.37727 1.1977-0.7731 1.7971-1.166zm-1.7971 1.166c-1.0815 0.66826-2.1739 1.2898-3.289 1.908 3.4197 3.9217 9.4836 15.7 11.19 14.663 1.6999-1.0332-5.9212-11.729-7.9005-16.571zm-3.289 1.908c-0.81352-0.933-1.4839-1.3971-1.8988-1.166-0.40944 0.22815-0.32782 1.0025 0.033905 2.1553 0.62448-0.32509 1.2503-0.64862 1.8649-0.98932zm-1.8649 0.9893c-1.1324 0.58946-2.2951 1.159-3.4586 1.6959 3.1054 4.098 8.3482 16.456 10.138 15.546 1.7854-0.9081-5.1342-12.316-6.6798-17.242zm-3.4586 1.6959c-0.71663-0.94566-1.3424-1.431-1.7632-1.2366-0.41609 0.19228-0.39079 0.95082-0.13564 2.0846 0.63849-0.27483 1.2691-0.55737 1.8988-0.84798zm-1.8988 0.848c-1.1935 0.51379-2.4053 0.99121-3.6281 1.4486 2.783 4.2288 7.118 17.102 8.9855 16.323 1.859-0.77521-4.2363-12.791-5.3574-17.772zm-3.6281 1.4486c-0.61783-0.9388-1.1389-1.4644-1.5597-1.3073-0.41946 0.15663-0.49275 0.90871-0.33908 2.0139 0.63901-0.22089 1.2673-0.47038 1.8988-0.70665zm-1.8988 0.7066c-1.2181 0.421-2.4519 0.80194-3.6959 1.166 2.4563 4.3723 5.8017 17.633 7.7309 16.995 1.9228-0.63664-3.3399-13.162-4.035-18.161zm-3.6959 1.166c-0.53311-0.94899-1.0343-1.5008-1.458-1.3779-0.42072 0.12187-0.56789 0.87077-0.50861 1.9432 0.65903-0.17487 1.3144-0.37445 1.9666-0.56529zm-1.9666 0.5653c-1.2613 0.33466-2.5466 0.60852-3.8316 0.88326 2.127 4.4614 4.4921 18.09 6.4763 17.595 1.9752-0.49231-2.3693-13.495-2.6448-18.479zm-3.8316 0.8833c-0.44589-0.93524-0.86884-1.5012-1.2885-1.4132-0.41765 0.087463-0.61427 0.77557-0.64424 1.802 0.64652-0.12201 1.2918-0.25159 1.9327-0.38878zm-1.9327 0.3888c-1.2908 0.24327-2.5875 0.45428-3.8994 0.63586 1.7881 4.5766 3.0992 18.435 5.12 18.09 2.0182-0.34428-1.3644-13.802-1.2207-18.726zm-3.8994 0.6359c-0.36984-0.94666-0.76634-1.5041-1.1868-1.4486-0.41771 0.05542-0.63631 0.69739-0.74597 1.696 0.65123-0.074158 1.2863-0.15794 1.9327-0.24744zm-1.9327 0.2474c-1.3121 0.14948-2.6367 0.26678-3.9672 0.35321 1.4435 4.6673 1.7179 18.636 3.7638 18.444 2.044-0.1922-0.33086-13.932 0.20344-18.797v-6.1e-5zm-3.9672 0.3532c-0.29468-0.9528-0.63225-1.5428-1.0511-1.5193-0.42055 0.023621-0.69635 0.67389-0.88161 1.6606 0.64621-0.027054 1.2906-0.10004 1.9327-0.14131zm-1.9327 0.1413c-1.1382 0.047958-2.2747 0.069946-3.4246 0.069946h-0.54254c1.0797 4.776 0.28709 18.658 2.3396 18.62 2.0529-0.038986 0.7245-13.881 1.6275-18.691v6.26e-4zm-3.9672 0.0699c-0.22172-0.98073-0.52789-1.6171-0.9494-1.6252-0.41901-0.010025-0.72426 0.59349-0.98332 1.5546 0.64452 0.019958 1.2845 0.065979 1.9327 0.070007v5.65e-4zm-1.9327-0.0699c-1.3402-0.039001-2.6782-0.10774-4.001-0.21204 0.71539 4.8395-1.1347 18.644 0.91548 18.761 2.052 0.11743 1.815-13.835 3.0856-18.549zm-4.0011-0.212c-0.14667-0.99184-0.39476-1.6208-0.8138-1.6605-0.41814-0.040085-0.78696 0.54108-1.1189 1.484 0.63855 0.065292 1.2898 0.12608 1.9327 0.17651zm-1.9327-0.1765c-1.3174-0.13502-2.6355-0.26234-3.9333-0.45937 0.30975 4.9452-2.5333 18.457-0.50864 18.726 2.0363 0.27098 2.8182-13.655 4.4419-18.267zm-3.9333-0.4594c-0.06543-1.0452-0.25272-1.7289-0.67816-1.8019-0.42203-0.072876-0.84418 0.49994-1.2546 1.4486 0.64954 0.11498 1.2779 0.25382 1.9327 0.35332zm-1.9327-0.3533c-1.3035-0.23054-2.5846-0.48549-3.8654-0.77734-0.071899 4.9618-3.9299 18.199-1.9327 18.62 2.0018 0.42158 3.8373-13.31 5.7982-17.843zm-3.8654-0.7773c0.015106-1.0526-0.12256-1.7674-0.54251-1.8726-0.42703-0.107-0.92773 0.44942-1.4241 1.4132 0.64948 0.16513 1.3109 0.30995 1.9666 0.45932zm-1.9666-0.4593c-1.2619-0.32072-2.5266-0.64566-3.7637-1.0246-0.5094 5.021-5.268 17.736-3.3229 18.302 1.9524 0.56805 4.7935-12.824 7.0867-17.277v-7.6e-5zm-3.7637-1.0246c0.11264-1.1101 0.052002-1.8375-0.37299-1.9786-0.42212-0.14018-0.95029 0.36475-1.5258 1.3073 0.63663 0.21252 1.2552 0.47418 1.8988 0.67134zm-1.8988-0.6713c-1.2471-0.41638-2.477-0.86833-3.6959-1.3426-0.89059 4.9692-6.6094 17.309-4.7132 18.019 1.8993 0.71147 5.7842-12.378 8.4091-16.677zm-3.6959-1.3426c0.19702-1.0994 0.20981-1.8411-0.20346-2.014-0.4277-0.17883-1.0142 0.33601-1.6954 1.3073 0.62125 0.25989 1.2697 0.46184 1.8988 0.70666zm-1.8988-0.7067c-1.1842-0.49544-2.3381-1.041-3.4925-1.59-1.3382 4.9564-7.8921 16.645-6.0694 17.489 1.8226 0.84442 6.6104-11.69 9.5619-15.899zm-3.4925-1.59c0.30881-1.1438 0.34509-1.9447-0.06781-2.1552-0.41571-0.21198-1.0372 0.30718-1.7971 1.2366 0.61453 0.31189 1.2413 0.62213 1.8649 0.91864zm-1.8649-0.9186c-1.1475-0.58228-2.2761-1.2029-3.3908-1.8372-1.7554 4.8769-9.103 15.914-7.3579 16.889 1.7505 0.97749 7.4832-11.057 10.749-15.052zm-3.3908-1.8372c0.41516-1.1534 0.50537-1.9801 0.10165-2.226-0.41058-0.25006-1.1026 0.24312-1.9666 1.166 0.61368 0.37129 1.2405 0.70467 1.8649 1.06h6.1e-5zm-1.8649-1.06c-1.0818-0.65448-2.14-1.3112-3.1873-2.0139-2.2115 4.7917-10.195 15.089-8.5447 16.182 1.6592 1.0986 8.1549-10.347 11.732-14.168zm-3.1873-2.0139c0.54874-1.1889 0.73801-2.0455 0.33908-2.3319-0.39905-0.28644-1.1407 0.16652-2.1022 1.0599 0.58984 0.41933 1.1615 0.86824 1.7632 1.272zm-1.7632-1.272c-1.0236-0.72751-2.031-1.4881-3.0178-2.2612-2.5943 4.6255-11.29 14.229-9.7314 15.44 1.5626 1.2137 8.8754-9.5793 12.749-13.179zm-3.0178-2.2612c0.65198-1.1625 0.92239-2.0485 0.54251-2.3672-0.38538-0.32341-1.2076 0.12921-2.2718 0.98932 0.56619 0.46912 1.15 0.92407 1.7293 1.3779zm-1.7293-1.3779c-0.95599-0.79211-1.8969-1.6035-2.8143-2.4379-3.0257 4.4568-12.232 13.209-10.783 14.522 1.4568 1.3196 9.4381-8.7226 13.597-12.084zm-2.8143-2.4379c0.79465-1.1705 1.181-2.0791 0.81378-2.4379-0.37256-0.36408-1.2875 0.082413-2.4752 0.91864 0.54083 0.5202 1.1061 1.0141 1.6615 1.5193zm-1.6615-1.5193c-0.88519-0.85149-1.7321-1.7239-2.577-2.6146-3.4357 4.2446-13.134 12.162-11.8 13.568 1.34 1.4125 9.9367-7.8274 14.377-10.953zm-2.577-2.6146c0.93939-1.1606 1.4348-2.0754 1.085-2.4732-0.35413-0.40279-1.3392-0.014725-2.6448 0.77733 0.51273 0.57251 1.0307 1.1382 1.5597 1.6959zm-1.5597-1.6959c-0.81769-0.91309-1.6324-1.8415-2.4074-2.7913-3.8346 3.9962-13.859 11.055-12.648 12.543 1.2189 1.4971 10.355-6.9 15.055-9.7516zm-2.4074-2.7913c1.0956-1.1418 1.7199-2.0354 1.3902-2.4732-0.33145-0.44014-1.3933-0.097488-2.8143 0.63597 0.47351 0.61597 0.93304 1.2356 1.4241 1.8373zm-1.4241-1.8373c-0.73425-0.9552-1.4792-1.9089-2.1701-2.8972-4.2155 3.7105-14.545 9.8893-13.461 11.448 1.0931 1.5724 10.692-6.0006 15.631-8.5504zm-2.1701-2.8972c1.2617-1.1106 2.0016-1.995 1.6954-2.4733-0.30667-0.47888-1.4698-0.21095-3.0178 0.45937 0.43933 0.67076 0.86337 1.3572 1.3224 2.0139zm-1.3224-2.0139c-0.65079-0.99362-1.2584-2.0151-1.8649-3.0386-4.5214 3.3853-15.165 8.689-14.207 10.317 0.96143 1.6347 10.909-5.0425 16.072-7.2784zm-1.8649-3.0386c1.3797-1.033 2.2058-1.8951 1.9327-2.4026-0.27832-0.51721-1.4746-0.27716-3.1534 0.31799 0.39062 0.70778 0.80908 1.3901 1.2207 2.0846zm-1.2207-2.0846c-0.57129-1.035-1.1361-2.0823-1.6615-3.1445-4.8653 3.0333-15.604 7.443-14.784 9.1156 0.82611 1.6854 11.079-4.0689 16.445-5.9711zm-1.6615-3.1445c1.5713-0.97961 2.5158-1.8175 2.2718-2.3673-0.2449-0.5517-1.5267-0.39381-3.3229 0.10596 0.34482 0.75653 0.68326 1.5176 1.0511 2.2613zm-1.0511-2.2612c-0.48355-1.0609-0.95303-2.1304-1.3902-3.2153-5.1337 2.6523-16.011 6.1984-15.326 7.9144 0.68954 1.7275 11.181-3.1588 16.716-4.6991zm-1.3902-3.2153c1.7112-0.88411 2.7834-1.681 2.577-2.2612-0.2085-0.58606-1.5727-0.50005-3.4925-0.10596 0.29147 0.79688 0.59924 1.5824 0.91553 2.3672v-4.6e-5zm-0.9155-2.3673c-0.39902-1.091-0.76743-2.1732-1.1189-3.2859-5.3762 2.246-16.28 4.9668-15.733 6.7131 0.55069 1.7566 11.17-2.2607 16.852-3.4272zm-1.1189-3.2859c1.8591-0.77667 3.0483-1.5093 2.8821-2.1199-0.16681-0.61287-1.5835-0.61914-3.5942-0.35335 0.23135 0.82587 0.45462 1.6583 0.71204 2.4732zm-0.712-2.4732c-0.30771-1.0984-0.62097-2.2044-0.88162-3.3212-5.5698 1.8225-16.448 3.6713-16.038 5.4412 0.4126 1.7802 11.134-1.3551 16.92-2.12zm-0.8816-3.3212c1.9798-0.64784 3.3091-1.3092 3.1873-1.9432-0.12274-0.63924-1.6227-0.72945-3.7298-0.60071 0.1691 0.85162 0.34613 1.7023 0.54251 2.544zm-0.5425-2.5439c-0.22064-1.1109-0.43707-2.2296-0.61032-3.3565-5.7258 1.3834-16.548 2.3861-16.276 4.1692 0.27365 1.7905 11.022-0.45435 16.886-0.81267zm-0.6103-3.3565c2.0898-0.50488 3.5332-1.0772 3.4585-1.7313-0.075073-0.65881-1.622-0.86011-3.7976-0.8833 0.1044 0.8714 0.20648 1.752 0.33911 2.6146zm-0.3391-2.6146c-0.13599-1.136-0.25204-2.277-0.33905-3.4272-5.8417 0.9331-16.547 1.1809-16.411 2.9678 0.13583 1.7937 10.848 0.39636 16.75 0.45935zm-0.339-3.4272c2.1835-0.34882 3.755-0.7793 3.7298-1.4487-0.025299-0.67584-1.6611-0.98143-3.8994-1.1659 0.037201 0.87769 0.10376 1.7445 0.16956 2.6146zm-0.1696-2.6146c-0.047699-1.1242-0.06778-2.2561-0.06778-3.3918 0-0.011917-3.1e-5 -0.023621 0-0.035278-5.9223 0.47198-16.478-0.083252-16.479 1.6959-8.85e-4 1.7855 10.638 1.2441 16.547 1.7313v-1e-4zm-0.0678-3.4272c2.2726-0.18115 3.9409-0.48376 3.9672-1.166 0.02652-0.68549-1.6298-1.1294-3.8994-1.484-0.029602 0.88031-0.067413 1.7626-0.06781 2.6499zm0.0678-2.6499c0.038208-1.1379 0.083313-2.2666 0.16956-3.3919-5.9622 0.006027-16.276-1.3026-16.411 0.45935-0.13586 1.7706 10.366 2.0147 16.242 2.9326zm0.1696-3.3919c2.3444-0.002014 4.0912-0.19299 4.1706-0.8833 0.080383-0.69855-1.6056-1.267-3.9333-1.802-0.098907 0.89075-0.16849 1.7859-0.23734 2.6852zm0.2373-2.6852c0.12323-1.1102 0.27182-2.2252 0.44083-3.3212-5.9649-0.46417-16.009-2.5107-16.276-0.77734-0.26749 1.7385 10.013 2.7605 15.835 4.0985zm0.4408-3.3212c2.4094 0.18744 4.2058 0.13025 4.3402-0.56537 0.13501-0.69946-1.5365-1.402-3.8654-2.1199-0.17093 0.89801-0.33466 1.7768-0.4747 2.6852zm0.4747-2.6852c0.21054-1.1063 0.45566-2.1963 0.71204-3.2859-5.9236-0.92755-15.677-3.6774-16.072-1.9786-0.39679 1.7044 9.6396 3.5012 15.36 5.2645zm0.712-3.2859c2.4391 0.3819 4.2865 0.48084 4.4758-0.21204 0.19012-0.69574-1.4841-1.5344-3.7976-2.4379-0.23871 0.87604-0.46927 1.7622-0.67816 2.65zm0.6782-2.65c0.29398-1.0789 0.61114-2.155 0.9494-3.2152-5.8438-1.385-15.246-4.8357-15.767-3.1799-0.52261 1.6613 9.2322 4.2138 14.818 6.3951zm0.9494-3.2152c2.4479 0.58018 4.3331 0.82628 4.5775 0.14136 0.24631-0.69025-1.3992-1.6956-3.6959-2.7912-0.31305 0.87264-0.59882 1.7636-0.88159 2.6499zm0.8816-2.6499c0.37305-1.0398 0.80563-2.0545 1.2207-3.0739-5.7264-1.832-14.785-5.916-15.428-4.3106-0.64313 1.6067 8.7847 4.7974 14.207 7.3844zm1.2207-3.0739c2.431 0.77777 4.3128 1.1655 4.6114 0.49463 0.30389-0.68274-1.2484-1.8125-3.5264-3.1092-0.38644 0.85912-0.72885 1.7397-1.085 2.6146zm1.085-2.6146c0.44833-0.99676 0.90207-1.9932 1.3902-2.9679-5.5762-2.2788-14.162-6.9465-14.919-5.4058-0.75714 1.5408 8.2969 5.3954 13.529 8.3737zm1.3902-2.9679c2.4286 0.99243 4.3242 1.5767 4.6792 0.91862 0.35974-0.66693-1.1349-1.9367-3.3568-3.4272-0.452 0.82709-0.89954 1.6642-1.3224 2.5086zm1.3224-2.5086c0.52612-0.96271 1.0969-1.8882 1.6615-2.8266-5.3875-2.6956-13.574-7.9783-14.445-6.5011-0.86691 1.4706 7.7781 5.9702 12.783 9.3276zm1.6615-2.8265c2.3576 1.1796 4.24 1.9036 4.6453 1.272 0.41354-0.64435-1.016-2.0342-3.1534-3.7099-0.52283 0.8017-0.99783 1.6168-1.4919 2.4379zm1.4919-2.4379c0.58841-0.90228 1.2071-1.7731 1.831-2.6499-5.1671-3.1155-12.829-8.9912-13.8-7.5964-0.97189 1.395 7.2238 6.5259 11.969 10.246zm1.831-2.6499c2.3284 1.4039 4.15 2.2368 4.6114 1.6252 0.46426-0.61517-0.85702-2.145-2.8821-3.9925-0.59326 0.77234-1.1643 1.5732-1.7293 2.3672zm1.7293-2.3672c0.65454-0.85205 1.3125-1.7192 2.0006-2.5439-4.9135-3.507-12.053-9.8259-13.122-8.5151-1.0721 1.3142 6.6664 6.9944 11.122 11.059zm2.0005-2.5439c2.2515 1.6069 4.0311 2.631 4.5436 2.0493 0.5126-0.58185-0.74777-2.1942-2.6448-4.2045-0.64072 0.71423-1.2841 1.4184-1.8988 2.1553zm1.8988-2.1553c0.72818-0.81177 1.4771-1.5856 2.2379-2.3672-4.6328-3.8668-11.278-10.696-12.444-9.469-1.1659 1.2265 6.0672 7.4499 10.206 11.836zm2.2379-2.3672c2.1233 1.7722 3.8526 2.9442 4.408 2.4026 0.55841-0.54462-0.58456-2.288-2.3396-4.4518-0.70187 0.67078-1.3915 1.3538-2.0684 2.0493zm2.0684-2.0493c0.77957-0.74506 1.5641-1.5122 2.3735-2.226-4.3214-4.2144-10.381-11.446-11.63-10.317-1.2526 1.1324 5.4579 7.8592 9.2567 12.543zm2.3735-2.226c2.0136 1.9638 3.6368 3.2952 4.2384 2.7913 0.60355-0.50549-0.42429-2.3451-2.0344-4.6638-0.74567 0.61139-1.4814 1.2354-2.204 1.8726zm2.204-1.8726c0.83884-0.68774 1.71-1.3243 2.577-1.9786-3.9886-4.5274-9.485-12.197-10.816-11.165-1.3296 1.0306 4.7994 8.1895 8.2395 13.144zm2.577-1.9786c1.8584 2.1095 3.3967 3.5311 4.035 3.0739 0.6402-0.45862-0.26627-2.3368-1.6954-4.7698-0.78982 0.5528-1.5712 1.1161-2.3396 1.6959zm2.3396-1.6959c0.88882-0.62201 1.7976-1.2151 2.7126-1.8019-3.6314-4.817-8.4969-12.87-9.901-11.942-1.4042 0.92773 4.1347 8.5455 7.1884 13.744zm2.7126-1.8019c1.6999 2.2549 3.1243 3.8011 3.7976 3.3919 0.67804-0.41205-0.06601-2.4219-1.3224-4.9818-0.84573 0.49982-1.65 1.0606-2.4752 1.5899zm2.4752-1.5899c0.93048-0.54999 1.86-1.0766 2.8144-1.59-3.2494-5.0826-7.4532-13.359-8.9177-12.543-1.4657 0.81659 3.4471 8.7203 6.1033 14.133zm2.8144-1.59c1.541 2.4103 2.8854 4.1057 3.5942 3.7452 0.70996-0.36108 0.081818-2.4269-0.98331-5.0878-0.8736 0.42999-1.7557 0.88263-2.6109 1.3426zm2.6109-1.3427c0.95767-0.47131 1.9371-0.90832 2.916-1.3426-2.8514-5.3146-6.4146-13.881-7.9344-13.179-1.5211 0.70282 2.7779 8.9251 5.0183 14.522zm2.916-1.3426c1.3593 2.5336 2.5862 4.3351 3.3229 4.0279 0.73456-0.3064 0.28165-2.4294-0.57645-5.1585-0.92212 0.36896-1.8418 0.72925-2.7465 1.1306zm2.7465-1.1306c0.99948-0.3999 1.9988-0.80505 3.0178-1.166-2.438-5.5147-5.3495-14.294-6.9171-13.709-1.5709 0.58667 2.0918 9.1258 3.8994 14.875zm3.0178-1.166c1.1649 2.635 2.2247 4.5265 2.9839 4.2752 0.75864-0.25116 0.44998-2.3923-0.20346-5.1938-0.93683 0.29382-1.8588 0.59222-2.7804 0.91864zm2.7804-0.9186c1.0176-0.31915 2.0509-0.63879 3.0856-0.91864-2.0115-5.6826-4.2248-14.669-5.8321-14.204-1.6081 0.46594 1.3777 9.2536 2.7465 15.122zm3.0856-0.9186c0.96173 2.7169 1.9023 4.7161 2.6787 4.5225 0.77792-0.19397 0.64529-2.3736 0.20343-5.2291-0.96393 0.22302-1.9319 0.44965-2.8821 0.7066zm2.8821-0.7066c1.0459-0.24213 2.0922-0.47003 3.1534-0.67133-1.5715-5.8187-3.1111-14.935-4.747-14.592-1.6365 0.34308 0.67218 9.3087 1.5937 15.264zm3.1534-0.6713c0.75452 2.7936 1.5146 4.8341 2.3057 4.6992 0.79324-0.13538 0.83652-2.3334 0.61035-5.2292-0.98785 0.15002-1.9404 0.34491-2.9161 0.53003zm2.9161-0.53c1.0523-0.15973 2.122-0.26953 3.1873-0.38861-1.1249-5.9202-1.9367-15.129-3.5942-14.91-1.6551 0.21863-0.062286 9.2914 0.40692 15.299zm3.1873-0.3886c0.5399 2.8412 1.1677 4.9155 1.9666 4.8405 0.7955-0.074707 0.98569-2.2147 0.98334-5.0878-0.98422 0.074097-1.976 0.13843-2.95 0.24731zm2.95-0.2473c1.0671-0.080627 2.1429-0.1731 3.2212-0.21204-0.67184-5.9878-0.8057-15.216-2.4752-15.122-1.6728 0.09375-0.75093 9.3098-0.74596 15.334zm3.2212-0.212c0.32234 2.8729 0.7576 4.9965 1.5598 4.9818 0.8022-0.014648 1.1745-2.1694 1.3902-5.0524-0.99057 3.66e-4 -1.9681 0.035095-2.95 0.070679v-6.1e-5z" fill="url(#i)"/>
   </g>
  </g>
 </g>
</svg>
